# xmcd
#
# Track frame offsets: 
#        180
#        12465
#        30577
#        49594
#        61620
#        72615
#        87072
#        108413
#        121401
#        135405
#        153595
#        169658
#        186742
#        201539
#        214543
#        233428
#
# Disc length: 3255 seconds
#
# Revision: 0
# Processed by: cddbd v1.4PL0 Copyright (c) Steve Scherf et al.
# Submitted via: ExactAudioCopy v0.90b2
#
DISCID=db0cb510
DTITLE=Kirk James - Backdoor Boogie
DYEAR=1995
DGENRE=Blues
TTITLE0=Comin' Right At Ya
TTITLE1=Backdoor Boogie
TTITLE2=Never Let You Go
TTITLE3=Moan That Moan
TTITLE4=Travelin' Man
TTITLE5=The Cookie Song
TTITLE6=Leavin' Trunk
TTITLE7=Dreamy Eyed Girl
TTITLE8=Maybe This Time
TTITLE9=Stop Breakin' Down 
TTITLE10=Ain't Nobody's Business 
TTITLE11=Young Boy Blues
TTITLE12=Kind Hearted Woman 
TTITLE13=Cookin' Biscuits
TTITLE14=I've Got News
TTITLE15=I Wanna Stay
EXTD=
EXTT0=
EXTT1=
EXTT2=
EXTT3=
EXTT4=
EXTT5=
EXTT6=
EXTT7=
EXTT8=
EXTT9=
EXTT10=
EXTT11=
EXTT12=
EXTT13=
EXTT14=
EXTT15=
PLAYORDER=
